<svg width="22" height="22" viewBox="0 0 22 22" fill="none" xmlns="http://www.w3.org/2000/svg">
<g clip-path="url(#clip0_1456_3157)">
<path fill-rule="evenodd" clip-rule="evenodd" d="M16.0489 3.98828C14.648 2.98002 12.9773 2.41436 11.2521 2.3642C9.52683 2.31404 7.82609 2.78168 6.36901 3.70685C4.91194 4.63202 3.76529 5.97233 3.07685 7.55507C2.3884 9.13781 2.1897 10.8904 2.50634 12.5871C2.55851 12.892 2.48877 13.2051 2.31217 13.459C2.13557 13.7128 1.86627 13.8871 1.56233 13.9442C1.25839 14.0014 0.944182 13.9367 0.687468 13.7643C0.430754 13.5918 0.252105 13.3254 0.190053 13.0224C-0.219452 10.8308 0.0467583 8.56656 0.953396 6.52972C1.86003 4.49289 3.36428 2.77968 5.26675 1.61721C7.16921 0.454734 9.38003 -0.102109 11.6062 0.0204915C13.8323 0.143092 15.9686 0.939346 17.7319 2.3037L18.6936 1.34199C18.8034 1.23192 18.9434 1.15689 19.0959 1.12641C19.2483 1.09592 19.4064 1.11135 19.5501 1.17074C19.6937 1.23013 19.8166 1.33081 19.903 1.46004C19.9894 1.58927 20.0356 1.74123 20.0356 1.8967V5.49999C20.0356 5.70837 19.9528 5.90822 19.8055 6.05557C19.6581 6.20292 19.4583 6.2857 19.2499 6.2857H15.6466C15.4915 6.28536 15.3399 6.23909 15.211 6.15274C15.0821 6.06638 14.9817 5.94379 14.9224 5.80044C14.863 5.65708 14.8475 5.49937 14.8777 5.34718C14.9078 5.195 14.9824 5.05515 15.0919 4.94528L16.0489 3.98828ZM20.4348 8.03785C20.7419 7.97992 21.0595 8.04638 21.3177 8.22261C21.5758 8.39884 21.7534 8.6704 21.8113 8.97756C22.2212 11.1694 21.9551 13.434 21.0485 15.4712C20.1418 17.5084 18.6373 19.2219 16.7345 20.3844C14.8318 21.547 12.6206 22.1037 10.3941 21.9808C8.16767 21.8579 6.03118 21.0612 4.26791 19.6963L3.3062 20.6596C3.19631 20.7697 3.05618 20.8448 2.90358 20.8752C2.75098 20.9057 2.59278 20.8901 2.44904 20.8305C2.3053 20.7709 2.18248 20.67 2.09616 20.5405C2.00985 20.4111 1.96392 20.2589 1.9642 20.1033V16.5C1.9642 16.2916 2.04698 16.0918 2.19433 15.9444C2.34168 15.7971 2.54153 15.7143 2.74991 15.7143H6.3532C6.5088 15.714 6.66098 15.7599 6.79045 15.8462C6.91992 15.9326 7.02084 16.0554 7.08043 16.1991C7.14001 16.3429 7.15558 16.5011 7.12514 16.6537C7.09471 16.8063 7.01965 16.9464 6.90948 17.0563L5.95091 18.0133C7.35178 19.0215 9.02248 19.5872 10.7477 19.6374C12.473 19.6875 14.1737 19.2199 15.6308 18.2947C17.0879 17.3695 18.2345 16.0292 18.923 14.4465C19.6114 12.8637 19.8101 11.1111 19.4935 9.41442C19.4648 9.26211 19.4665 9.10564 19.4984 8.95398C19.5303 8.80232 19.5918 8.65843 19.6794 8.53057C19.767 8.40271 19.8789 8.29337 20.0088 8.20882C20.1387 8.12427 20.284 8.06617 20.4363 8.03785H20.4348ZM11.9852 5.7467C11.9852 5.43413 11.861 5.13435 11.64 4.91333C11.419 4.6923 11.1192 4.56813 10.8066 4.56813C10.494 4.56813 10.1943 4.6923 9.97325 4.91333C9.75222 5.13435 9.62805 5.43413 9.62805 5.7467V6.2857C9.01369 6.38735 8.45396 6.69994 8.04518 7.1697C7.63639 7.63945 7.40411 8.23699 7.38829 8.8595C7.37248 9.48202 7.57412 10.0906 7.95853 10.5805C8.34294 11.0704 8.88607 11.411 9.49448 11.5437L11.4745 11.9758C11.5919 12.0056 11.6946 12.0768 11.7638 12.1763C11.8329 12.2757 11.8638 12.3968 11.8508 12.5172C11.8378 12.6377 11.7818 12.7494 11.693 12.8318C11.6042 12.9142 11.4887 12.9618 11.3676 12.9658H10.2456C10.1423 12.9655 10.0417 12.9333 9.95735 12.8737C9.873 12.8141 9.80905 12.7299 9.7742 12.6327C9.72261 12.4867 9.64276 12.3523 9.53923 12.2371C9.43569 12.122 9.31049 12.0284 9.17077 11.9616C9.03105 11.8949 8.87955 11.8563 8.72492 11.8481C8.57029 11.8399 8.41556 11.8622 8.26955 11.9138C8.12355 11.9654 7.98914 12.0452 7.874 12.1487C7.75885 12.2523 7.66523 12.3775 7.59847 12.5172C7.53171 12.6569 7.49312 12.8084 7.48492 12.9631C7.47671 13.1177 7.49903 13.2724 7.55063 13.4184C7.71257 13.8756 7.98802 14.2842 8.35112 14.6058C8.71422 14.9274 9.15306 15.1515 9.62648 15.257V15.8258C9.62648 16.1384 9.75065 16.4382 9.97168 16.6592C10.1927 16.8802 10.4925 17.0044 10.8051 17.0044C11.1176 17.0044 11.4174 16.8802 11.6384 16.6592C11.8595 16.4382 11.9836 16.1384 11.9836 15.8258V15.257C12.6184 15.1147 13.1857 14.7603 13.5919 14.2522C13.9982 13.7441 14.2191 13.1127 14.2182 12.4622C14.2172 11.8117 13.9946 11.1809 13.5869 10.674C13.1792 10.167 12.6109 9.81419 11.9758 9.67371L9.99577 9.23999C9.91894 9.22266 9.85118 9.17766 9.80541 9.11357C9.75964 9.04947 9.73907 8.97077 9.74762 8.89248C9.75616 8.81419 9.79324 8.74178 9.85176 8.68907C9.91028 8.63636 9.98615 8.60705 10.0649 8.6067H11.3661C11.4696 8.60618 11.5706 8.63801 11.6551 8.69774C11.7397 8.75747 11.8034 8.84211 11.8375 8.93985C11.9417 9.23471 12.1587 9.47611 12.4409 9.61093C12.5806 9.67769 12.7321 9.71628 12.8868 9.72449C13.0414 9.73269 13.1961 9.71037 13.3421 9.65878C13.4881 9.60719 13.6225 9.52734 13.7377 9.42381C13.8528 9.32027 13.9465 9.19507 14.0132 9.05535C14.08 8.91563 14.1186 8.76413 14.1268 8.6095C14.135 8.45487 14.1126 8.30014 14.0611 8.15413C13.8995 7.69643 13.624 7.28745 13.2605 6.96576C12.897 6.64408 12.4576 6.42031 11.9836 6.31556V5.74985L11.9852 5.7467Z" fill="#9747FF"/>
</g>
<defs>
<clipPath id="clip0_1456_3157">
<rect width="22" height="22" fill="white"/>
</clipPath>
</defs>
</svg>
