<svg width="27" height="26" viewBox="0 0 27 26" fill="none" xmlns="http://www.w3.org/2000/svg">
<path d="M9.29914 25.044H6.51806C3.44615 25.044 0.955884 22.5537 0.955884 19.4818V10.732C0.955884 8.78697 1.97183 6.98327 3.63517 5.97519L10.5879 1.76142C12.3599 0.687535 14.5817 0.687535 16.3536 1.76142L23.3064 5.97519C24.9697 6.98327 25.9857 8.78697 25.9857 10.732V19.4818C25.9857 22.5537 23.4953 25.044 20.4235 25.044H17.6424M9.29914 25.044V19.4818C9.29914 17.1778 11.1668 15.3102 13.4708 15.3102C15.7748 15.3102 17.6424 17.1778 17.6424 19.4818V25.044M9.29914 25.044H17.6424" stroke="#191919" stroke-width="1.90501" stroke-linecap="round" stroke-linejoin="round"/>
</svg>
