<svg width="40" height="40" viewBox="0 0 40 40" fill="none" xmlns="http://www.w3.org/2000/svg">
<g clip-path="url(#clip0_745_7872)">
<path d="M11.4281 4.07499C13.3331 5.46333 14.8164 7.35833 16.0831 9.17166L16.8198 10.245L17.5148 11.27C17.8624 11.7779 18.011 12.3959 17.9323 13.0063C17.8537 13.6167 17.5532 14.1769 17.0881 14.58L13.8364 16.995C13.6793 17.1084 13.5687 17.275 13.5252 17.4639C13.4817 17.6527 13.5082 17.8509 13.5997 18.0217C14.3364 19.36 15.6464 21.3533 17.1464 22.8533C18.6481 24.3533 20.7348 25.75 22.1664 26.57C22.3459 26.6708 22.5572 26.6989 22.7568 26.6487C22.9565 26.5985 23.1293 26.4737 23.2397 26.3L25.3564 23.0783C25.7456 22.5614 26.3196 22.2151 26.9584 22.112C27.5971 22.0088 28.251 22.1568 28.7831 22.525L29.8881 23.29C31.9531 24.7233 34.1714 26.3517 35.8681 28.5233C36.1372 28.8697 36.3083 29.2819 36.3637 29.7169C36.4191 30.152 36.3568 30.5939 36.1831 30.9967C34.7881 34.2517 31.2581 37.0233 27.5864 36.8883L27.0864 36.86L26.6981 36.8267L26.2681 36.7767L25.7997 36.7133L25.2914 36.63C25.2024 36.6139 25.1135 36.5973 25.0248 36.58L24.4648 36.46C24.3668 36.4385 24.269 36.4163 24.1714 36.3933L23.5614 36.2367L22.9198 36.0533L22.2498 35.8367C19.1731 34.7933 15.2681 32.7433 11.2614 28.7367C7.25642 24.7317 5.20642 20.8267 4.16308 17.75L3.94642 17.08L3.76308 16.4383L3.60642 15.8283L3.47642 15.2517C3.43887 15.071 3.40386 14.8899 3.37142 14.7083L3.28808 14.2L3.22142 13.7317L3.17308 13.3017L3.13975 12.9133L3.11308 12.4133C2.97808 8.75333 5.77975 5.19833 9.01975 3.80999C9.40971 3.6416 9.83675 3.57749 10.259 3.62395C10.6812 3.67041 11.0841 3.82584 11.4281 4.07499ZM24.9864 10.0667L25.1798 10.0883C26.3929 10.3023 27.5072 10.8949 28.3629 11.7811C29.2186 12.6673 29.7717 13.8017 29.9431 15.0217C30.0042 15.4436 29.9012 15.873 29.6554 16.2213C29.4096 16.5697 29.0396 16.8106 28.6216 16.8945C28.2036 16.9784 27.7693 16.8989 27.4081 16.6724C27.0469 16.4459 26.7862 16.0895 26.6797 15.6767L26.6414 15.485C26.5744 15.0068 26.3703 14.5583 26.0538 14.1936C25.7373 13.829 25.322 13.5637 24.8581 13.43L24.5998 13.3717C24.1812 13.2975 23.8069 13.0662 23.5533 12.7252C23.2996 12.3841 23.1859 11.959 23.2352 11.5369C23.2846 11.1148 23.4934 10.7274 23.819 10.4541C24.1445 10.1808 24.5621 10.0422 24.9864 10.0667ZM24.9998 4.99999C27.6519 4.99999 30.1955 6.05356 32.0708 7.92893C33.9462 9.80429 34.9998 12.3478 34.9998 15C34.9993 15.4248 34.8366 15.8334 34.545 16.1423C34.2534 16.4512 33.8548 16.6371 33.4308 16.6619C33.0067 16.6868 32.5891 16.5489 32.2634 16.2762C31.9376 16.0036 31.7283 15.6168 31.6781 15.195L31.6664 15C31.667 13.3074 31.0235 11.6779 29.8664 10.4425C28.7093 9.20715 27.1255 8.4584 25.4364 8.34833L24.9998 8.33333C24.5577 8.33333 24.1338 8.15773 23.8212 7.84517C23.5087 7.53261 23.3331 7.10869 23.3331 6.66666C23.3331 6.22463 23.5087 5.80071 23.8212 5.48815C24.1338 5.17559 24.5577 4.99999 24.9998 4.99999Z" fill="#00A99D"/>
</g>
<defs>
<clipPath id="clip0_745_7872">
<rect width="40" height="40" fill="white"/>
</clipPath>
</defs>
</svg>
