<svg width="182" height="188" viewBox="0 0 182 188" fill="none" xmlns="http://www.w3.org/2000/svg">
<path d="M177.5 92.1332C177.5 142.816 138.541 183.5 90.9661 183.5C43.164 183.5 4.5 146.316 4.5 95.8668C4.5 70.3573 12.8061 47.5122 27.653 31.0973C42.4541 14.7331 63.9809 4.5 91.0339 4.5C138.836 4.5 177.5 41.6835 177.5 92.1332Z" fill="#A4A7AD" stroke="#030412" stroke-width="9"/>
<ellipse cx="124" cy="66.8788" rx="8" ry="11.8788" fill="#0B0A00"/>
<ellipse cx="57" cy="66.8788" rx="8" ry="11.8788" fill="#0B0A00"/>
<path fill-rule="evenodd" clip-rule="evenodd" d="M153.105 37.2695C166.197 53.2069 173.796 73.6079 173.177 95.6482C172.423 122.498 159.629 146.234 140 162.035C151.626 140.382 158.623 115.18 159.382 88.1439C159.881 70.3756 157.646 53.2468 153.105 37.2695Z" fill="#8A8888"/>
</svg>
