<svg width="49" height="49" viewBox="0 0 49 49" fill="none" xmlns="http://www.w3.org/2000/svg">
<path d="M25.6633 28.109V27.9923H5.25075C4.56112 27.992 3.8782 28.1276 3.24101 28.3914C2.60382 28.6551 2.02486 29.0419 1.53722 29.5295C1.04959 30.0172 0.662831 30.5961 0.399065 31.2333C0.135299 31.8705 -0.000306185 32.5534 5.19102e-07 33.2431V35.3877C5.19102e-07 36.7225 0.42006 38.0247 1.1925 39.1122C4.79101 44.1623 10.6812 46.6616 18.6623 46.6616C19.4978 46.6616 20.3099 46.636 21.0963 46.5799C21.0293 46.2221 20.9958 45.8588 20.996 45.4948V33.8265C20.9957 32.4815 21.4601 31.1778 22.3106 30.1359C23.1612 29.094 24.3455 28.378 25.6633 28.109ZM18.6623 0C20.1946 -2.28331e-08 21.7119 0.30181 23.1276 0.888198C24.5433 1.47459 25.8296 2.33407 26.9131 3.41757C27.9966 4.50108 28.8561 5.78738 29.4424 7.20305C30.0288 8.61871 30.3306 10.136 30.3306 11.6683C30.3306 13.2006 30.0288 14.7179 29.4424 16.1336C28.8561 17.5493 27.9966 18.8356 26.9131 19.9191C25.8296 21.0026 24.5433 21.8621 23.1276 22.4484C21.7119 23.0348 20.1946 23.3366 18.6623 23.3366C15.5677 23.3366 12.5998 22.1073 10.4116 19.9191C8.22333 17.7308 6.99399 14.763 6.99399 11.6683C6.99399 8.57369 8.22333 5.60581 10.4116 3.41757C12.5998 1.22934 15.5677 0 18.6623 0ZM27.997 30.326H26.8301C25.9018 30.326 25.0114 30.6948 24.3549 31.3512C23.6984 32.0077 23.3296 32.8981 23.3296 33.8265V45.4948C23.3296 46.4232 23.6984 47.3135 24.3549 47.97C25.0114 48.6265 25.9018 48.9953 26.8301 48.9953H45.4995C46.4278 48.9953 47.3182 48.6265 47.9747 47.97C48.6312 47.3135 49 46.4232 49 45.4948V33.8265C49 32.8981 48.6312 32.0077 47.9747 31.3512C47.3182 30.6948 46.4278 30.326 45.4995 30.326H44.3326V27.4089C44.3326 26.3258 43.9024 25.287 43.1365 24.5211C42.3706 23.7552 41.3318 23.325 40.2487 23.325H32.0809C30.9978 23.325 29.959 23.7552 29.1931 24.5211C28.4272 25.287 27.997 26.3258 27.997 27.4089V30.326ZM31.4975 27.4089C31.4975 27.2542 31.5589 27.1058 31.6683 26.9964C31.7778 26.8869 31.9262 26.8255 32.0809 26.8255H40.2487C40.4034 26.8255 40.5518 26.8869 40.6612 26.9964C40.7707 27.1058 40.8321 27.2542 40.8321 27.4089V30.326H31.4975V27.4089Z" fill="white"/>
</svg>
